STARTFONT 2.3
FONT -FontForge-Tangerine-Book-R-Normal--20-200-72-72-P-74-ISO10646-1
SIZE 20 72 72  2
FONTBOUNDINGBOX 34 21 -7 -5
COMMENT "Generated by fontforge, http://fontforge.sourceforge.net"
COMMENT "Copyright (c) 2010 by Toshi Omagari. All rights reserved."
STARTPROPERTIES 40
FOUNDRY "FontForge"
FAMILY_NAME "Tangerine"
WEIGHT_NAME "Book"
SLANT "R"
SETWIDTH_NAME "Normal"
ADD_STYLE_NAME ""
PIXEL_SIZE 20
POINT_SIZE 200
RESOLUTION_X 72
RESOLUTION_Y 72
SPACING "P"
AVERAGE_WIDTH 74
CHARSET_REGISTRY "ISO10646"
CHARSET_ENCODING "1"
FONTNAME_REGISTRY ""
CHARSET_COLLECTIONS "ISO10646-1"
BITS_PER_PIXEL 2
FONT_NAME "Tangerine-Regular"
FACE_NAME "Tangerine Regular"
COPYRIGHT "Copyright (c) 2010 by Toshi Omagari. All rights reserved."
FONT_VERSION "1.3"
FONT_ASCENT 15
FONT_DESCENT 5
UNDERLINE_POSITION -2
UNDERLINE_THICKNESS 1
X_HEIGHT 4
CAP_HEIGHT 12
RAW_ASCENT 750
RAW_DESCENT 250
NORM_SPACE 3
RELATIVE_WEIGHT 40
RELATIVE_SETWIDTH 50
SUPERSCRIPT_X 0
SUPERSCRIPT_Y 9
SUPERSCRIPT_SIZE 13
SUBSCRIPT_X 0
SUBSCRIPT_Y 2
SUBSCRIPT_SIZE 13
AVG_LOWERCASE_WIDTH 49
AVG_UPPERCASE_WIDTH 141
ENDPROPERTIES
CHARS 233
STARTCHAR space
ENCODING 32
SWIDTH 150 0
DWIDTH 3 0
BBX 1 1 0 0
BITMAP
00
ENDCHAR
STARTCHAR exclam
ENCODING 33
SWIDTH 189 0
DWIDTH 4 0
BBX 5 10 1 0
BITMAP
0080
0180
0200
0200
0500
0400
0400
1000
0000
8000
ENDCHAR
STARTCHAR quotedbl
ENCODING 34
SWIDTH 214 0
DWIDTH 4 0
BBX 4 3 1 5
BITMAP
22
54
44
ENDCHAR
STARTCHAR numbersign
ENCODING 35
SWIDTH 289 0
DWIDTH 6 0
BBX 6 6 0 0
BITMAP
0550
1FF0
1540
6E40
1000
1400
ENDCHAR
STARTCHAR dollar
ENCODING 36
SWIDTH 269 0
DWIDTH 5 0
BBX 5 8 0 -1
BITMAP
0040
0580
0940
0900
0600
4540
A500
1000
ENDCHAR
STARTCHAR percent
ENCODING 37
SWIDTH 388 0
DWIDTH 8 0
BBX 8 8 0 -1
BITMAP
0004
0510
4250
9558
6545
0484
14A4
1000
ENDCHAR
STARTCHAR ampersand
ENCODING 38
SWIDTH 507 0
DWIDTH 10 0
BBX 10 10 0 0
BITMAP
00A000
022000
011000
024000
024000
1601A0
614100
908400
507000
295A50
ENDCHAR
STARTCHAR quotesingle
ENCODING 39
SWIDTH 120 0
DWIDTH 2 0
BBX 2 3 1 5
BITMAP
20
50
40
ENDCHAR
STARTCHAR parenleft
ENCODING 40
SWIDTH 250 0
DWIDTH 5 0
BBX 5 15 2 -2
BITMAP
0040
0100
0800
1400
2000
2000
5000
8000
8000
8000
8000
8000
8000
4000
4000
ENDCHAR
STARTCHAR parenright
ENCODING 41
SWIDTH 276 0
DWIDTH 6 0
BBX 5 15 1 -2
BITMAP
0100
0100
0100
0140
0140
0240
0200
0200
0200
0500
0800
0800
2000
5000
4000
ENDCHAR
STARTCHAR asterisk
ENCODING 42
SWIDTH 188 0
DWIDTH 4 0
BBX 2 3 1 5
BITMAP
10
50
40
ENDCHAR
STARTCHAR plus
ENCODING 43
SWIDTH 301 0
DWIDTH 6 0
BBX 5 5 1 0
BITMAP
0400
0800
BF40
1400
1000
ENDCHAR
STARTCHAR comma
ENCODING 44
SWIDTH 112 0
DWIDTH 2 0
BBX 2 2 0 -1
BITMAP
20
40
ENDCHAR
STARTCHAR hyphen
ENCODING 45
SWIDTH 245 0
DWIDTH 5 0
BBX 1 1 4 3
BITMAP
00
ENDCHAR
STARTCHAR period
ENCODING 46
SWIDTH 112 0
DWIDTH 2 0
BBX 2 2 0 0
BITMAP
10
50
ENDCHAR
STARTCHAR slash
ENCODING 47
SWIDTH 210 0
DWIDTH 4 0
BBX 9 14 -1 -1
BITMAP
000040
000100
000100
000400
001400
001000
004000
004000
010000
010000
040000
140000
100000
400000
ENDCHAR
STARTCHAR zero
ENCODING 48
SWIDTH 349 0
DWIDTH 7 0
BBX 6 6 1 0
BITMAP
0580
1020
4020
8050
8040
6900
ENDCHAR
STARTCHAR one
ENCODING 49
SWIDTH 189 0
DWIDTH 4 0
BBX 4 6 1 0
BITMAP
BD
18
20
60
90
80
ENDCHAR
STARTCHAR two
ENCODING 50
SWIDTH 277 0
DWIDTH 6 0
BBX 6 6 0 0
BITMAP
0680
1050
0080
0140
1400
6A40
ENDCHAR
STARTCHAR three
ENCODING 51
SWIDTH 253 0
DWIDTH 5 0
BBX 6 9 -1 -3
BITMAP
0160
0020
01A0
0040
0050
0060
0090
4280
B900
ENDCHAR
STARTCHAR four
ENCODING 52
SWIDTH 363 0
DWIDTH 7 0
BBX 8 10 1 0
BITMAP
0001
0009
0054
0120
0450
1080
5084
5BE0
0200
0600
ENDCHAR
STARTCHAR five
ENCODING 53
SWIDTH 250 0
DWIDTH 5 0
BBX 8 10 -2 -3
BITMAP
0001
0069
0040
0140
01D0
0070
0020
0020
5090
3E00
ENDCHAR
STARTCHAR six
ENCODING 54
SWIDTH 296 0
DWIDTH 6 0
BBX 8 10 1 0
BITMAP
007D
0241
0800
1400
2600
5180
8080
8140
C100
A400
ENDCHAR
STARTCHAR seven
ENCODING 55
SWIDTH 326 0
DWIDTH 7 0
BBX 8 9 0 -3
BITMAP
0BF9
1404
1010
0040
0140
0500
1800
6000
8000
ENDCHAR
STARTCHAR eight
ENCODING 56
SWIDTH 305 0
DWIDTH 6 0
BBX 6 10 1 0
BITMAP
0150
0420
0820
0810
0740
1580
80C0
8080
C040
6500
ENDCHAR
STARTCHAR nine
ENCODING 57
SWIDTH 304 0
DWIDTH 6 0
BBX 7 9 -1 -3
BITMAP
0064
040C
0808
0818
0C24
0BA0
0050
4140
7900
ENDCHAR
STARTCHAR colon
ENCODING 58
SWIDTH 156 0
DWIDTH 3 0
BBX 3 5 0 0
BITMAP
18
00
00
00
50
ENDCHAR
STARTCHAR semicolon
ENCODING 59
SWIDTH 156 0
DWIDTH 3 0
BBX 3 7 0 -2
BITMAP
18
00
00
00
60
50
40
ENDCHAR
STARTCHAR less
ENCODING 60
SWIDTH 301 0
DWIDTH 6 0
BBX 5 4 1 1
BITMAP
0040
1900
9000
0500
ENDCHAR
STARTCHAR equal
ENCODING 61
SWIDTH 301 0
DWIDTH 6 0
BBX 5 3 1 1
BITMAP
BF80
0000
FF00
ENDCHAR
STARTCHAR greater
ENCODING 62
SWIDTH 301 0
DWIDTH 6 0
BBX 4 3 2 2
BITMAP
A0
1D
04
ENDCHAR
STARTCHAR question
ENCODING 63
SWIDTH 285 0
DWIDTH 6 0
BBX 7 10 1 0
BITMAP
01B4
0418
0008
0010
0050
0500
1400
2400
0000
8000
ENDCHAR
STARTCHAR at
ENCODING 64
SWIDTH 492 0
DWIDTH 10 0
BBX 8 10 1 -2
BITMAP
06F8
1909
2002
4021
8461
8990
8A90
8000
6004
1950
ENDCHAR
STARTCHAR A
ENCODING 65
SWIDTH 996 0
DWIDTH 20 0
BBX 19 13 1 0
BITMAP
000005AA90
000010006C
0000400064
0000400120
0000000450
0000001080
0000004080
00002FFF40
0000010140
4000040240
8000500240
9005000244
6EA40001E0
ENDCHAR
STARTCHAR B
ENCODING 66
SWIDTH 638 0
DWIDTH 13 0
BBX 12 14 1 0
BITMAP
000010
0016A4
00420A
010803
000802
001405
002094
002028
00500D
008005
014006
950009
280018
065550
ENDCHAR
STARTCHAR C
ENCODING 67
SWIDTH 557 0
DWIDTH 11 0
BBX 12 13 1 0
BITMAP
001569
014005
040000
140000
200000
600000
500000
900000
900000
600010
300010
180090
065640
ENDCHAR
STARTCHAR D
ENCODING 68
SWIDTH 799 0
DWIDTH 16 0
BBX 16 13 0 0
BITMAP
0016A540
00400B40
010009D0
01002034
0000201C
00005009
00008006
00018002
00020002
00020002
00080005
15A80004
6546A950
ENDCHAR
STARTCHAR E
ENCODING 69
SWIDTH 494 0
DWIDTH 10 0
BBX 10 13 1 0
BITMAP
001590
008020
014010
018000
009000
07F400
190000
600000
900000
900000
900040
600200
195500
ENDCHAR
STARTCHAR F
ENCODING 70
SWIDTH 626 0
DWIDTH 13 0
BBX 15 13 1 0
BITMAP
0005ABE4
00100144
00400500
00000800
00000800
00001400
001FFF40
00002000
00005000
40008000
80014000
90050000
2A500000
ENDCHAR
STARTCHAR G
ENCODING 71
SWIDTH 571 0
DWIDTH 11 0
BBX 15 17 -1 -4
BITMAP
000006F4
00006418
00014004
00020000
00080000
00140000
00240000
00300000
00300100
00300200
00180900
10054800
50000800
80002000
90005000
60014000
19540000
ENDCHAR
STARTCHAR H
ENCODING 72
SWIDTH 865 0
DWIDTH 17 0
BBX 22 14 1 0
BITMAP
0000000001A0
0005A9000510
001008001000
004020004000
000060004000
000090020000
0000C0010000
01BF80080000
1901AA580000
5002006D0000
800600240000
800800200000
906000310000
7E4000280000
ENDCHAR
STARTCHAR I
ENCODING 73
SWIDTH 554 0
DWIDTH 11 0
BBX 14 13 1 0
BITMAP
00000690
00002500
00008100
00010500
00040800
00040800
00041400
00042000
10005000
40008000
80020000
A0180000
2F900000
ENDCHAR
STARTCHAR J
ENCODING 74
SWIDTH 634 0
DWIDTH 13 0
BBX 17 17 0 -4
BITMAP
0000001A40
0000019400
0000051400
0000042000
0000102000
0000105000
0000008000
0000108000
0000114000
0040020000
0400050000
1000080000
4000140000
8000500000
8001400000
A019000000
2F90000000
ENDCHAR
STARTCHAR K
ENCODING 75
SWIDTH 936 0
DWIDTH 19 0
BBX 19 13 1 0
BITMAP
0005AA40A8
0014010504
0040081400
0040084000
0040154000
0040250000
0000260000
0000220000
1000524000
8000818000
8001008000
9005006000
6A50001A40
ENDCHAR
STARTCHAR L
ENCODING 76
SWIDTH 657 0
DWIDTH 13 0
BBX 15 13 0 0
BITMAP
000002F0
00000914
00001004
00005000
00008000
00008000
00014000
00020000
00020000
00050000
1A480000
50794140
2546FD00
ENDCHAR
STARTCHAR M
ENCODING 77
SWIDTH 1219 0
DWIDTH 24 0
BBX 25 13 1 0
BITMAP
00005AA9000140
00004001A00A00
00010000801800
00000001405400
00000006022000
00000006045000
10000015108000
40000049508000
80000108408000
80000409008000
80001019018000
6001401800C400
1EA4001000A400
ENDCHAR
STARTCHAR N
ENCODING 78
SWIDTH 990 0
DWIDTH 20 0
BBX 25 13 1 0
BITMAP
0006A400000B40
00100740002040
00000180008000
00000160010000
00000114010000
00000508040000
00000406040000
00000402040000
40001001500000
80001000900000
80004000900000
64050000500000
1FA40000100000
ENDCHAR
STARTCHAR O
ENCODING 79
SWIDTH 606 0
DWIDTH 12 0
BBX 12 13 1 0
BITMAP
001BE0
01906C
05000A
040003
200003
200002
500002
900002
900004
600004
340020
1D0180
06F900
ENDCHAR
STARTCHAR P
ENCODING 80
SWIDTH 783 0
DWIDTH 16 0
BBX 17 14 1 0
BITMAP
0000001000
000056A400
0001020900
0004050300
0000080240
0010080140
0000140240
0000600200
0000201800
4000454000
4000400000
8001000000
9004000000
2A50000000
ENDCHAR
STARTCHAR Q
ENCODING 81
SWIDTH 563 0
DWIDTH 11 0
BBX 14 16 1 -3
BITMAP
00159000
01002400
04000C00
04000C00
10000900
20000800
20000800
20001400
24001000
0A404000
00010000
10000000
5A400000
01A40000
001B9050
0001BF80
ENDCHAR
STARTCHAR R
ENCODING 82
SWIDTH 854 0
DWIDTH 17 0
BBX 16 14 1 0
BITMAP
00000040
000056A0
00010818
00001808
00002409
00002008
00006004
00009540
00008900
00014500
40020200
40050200
80140180
6A400069
ENDCHAR
STARTCHAR S
ENCODING 83
SWIDTH 480 0
DWIDTH 10 0
BBX 10 13 1 0
BITMAP
001A80
001050
005010
005000
002000
001800
000900
000200
000200
800200
800200
900500
2A5000
ENDCHAR
STARTCHAR T
ENCODING 84
SWIDTH 577 0
DWIDTH 12 0
BBX 15 13 1 0
BITMAP
001BFE90
005005A8
01000100
01000500
04000800
00001400
00002000
00002000
00005000
40008000
80010000
90040000
6A900000
ENDCHAR
STARTCHAR U
ENCODING 85
SWIDTH 752 0
DWIDTH 15 0
BBX 16 13 1 0
BITMAP
01AA4006
04010008
10040018
40140020
40100060
40400090
008001C0
01400280
01400540
02401600
02405200
02814210
00B902D0
ENDCHAR
STARTCHAR V
ENCODING 86
SWIDTH 661 0
DWIDTH 13 0
BBX 14 13 1 0
BITMAP
06A402D0
04080470
10060020
00020020
40020010
00020050
00020040
00020100
00020000
00021000
00024000
00060000
00080000
ENDCHAR
STARTCHAR W
ENCODING 87
SWIDTH 822 0
DWIDTH 16 0
BBX 18 13 1 0
BITMAP
06A0000090
1018014060
0008050020
4004080050
4005180040
0004480040
0004480100
0005080500
0005091400
0008091000
0014054000
0020060000
0010050000
ENDCHAR
STARTCHAR X
ENCODING 88
SWIDTH 813 0
DWIDTH 16 0
BBX 16 13 1 0
BITMAP
000B002E
00124182
00114501
00018400
00009000
00009000
00008000
00019000
00012000
00042000
40101800
C0500A04
BA0002F0
ENDCHAR
STARTCHAR Y
ENCODING 89
SWIDTH 662 0
DWIDTH 13 0
BBX 18 16 0 -3
BITMAP
0001900050
0004500080
0000900140
0000800200
0000800900
0001401C00
0002002400
0002006000
0502019000
1003094000
4002E10000
8000050000
8000040000
9000500000
3406400000
0BE4000000
ENDCHAR
STARTCHAR Z
ENCODING 90
SWIDTH 625 0
DWIDTH 13 0
BBX 13 13 1 0
BITMAP
000BE440
00201B40
00400000
00400000
00000000
00000000
00000000
00000000
00000000
00000000
00000400
2E501400
41BF8000
ENDCHAR
STARTCHAR bracketleft
ENCODING 91
SWIDTH 318 0
DWIDTH 6 0
BBX 7 14 1 -2
BITMAP
0094
0180
0240
0200
0200
0500
0900
0800
0800
1400
2400
2000
3000
6500
ENDCHAR
STARTCHAR backslash
ENCODING 92
SWIDTH 212 0
DWIDTH 4 0
BBX 4 14 0 -1
BITMAP
40
40
10
10
10
10
10
04
04
04
04
04
01
01
ENDCHAR
STARTCHAR bracketright
ENCODING 93
SWIDTH 339 0
DWIDTH 7 0
BBX 8 14 0 -2
BITMAP
005D
000C
0018
0014
0020
0020
0020
0050
0080
0080
0080
0140
0240
5700
ENDCHAR
STARTCHAR asciicircum
ENCODING 94
SWIDTH 272 0
DWIDTH 5 0
BBX 4 4 1 4
BITMAP
08
19
12
42
ENDCHAR
STARTCHAR underscore
ENCODING 95
SWIDTH 356 0
DWIDTH 7 0
BBX 6 1 0 -1
BITMAP
AA50
ENDCHAR
STARTCHAR grave
ENCODING 96
SWIDTH 155 0
DWIDTH 3 0
BBX 3 2 0 6
BITMAP
60
14
ENDCHAR
STARTCHAR a
ENCODING 97
SWIDTH 294 0
DWIDTH 6 0
BBX 6 5 0 0
BITMAP
0BD0
2480
2180
6640
7580
ENDCHAR
STARTCHAR b
ENCODING 98
SWIDTH 247 0
DWIDTH 5 0
BBX 11 15 0 0
BITMAP
0001A4
000404
001000
004000
004000
010000
010000
040000
080000
140000
268000
208000
204000
610000
640000
ENDCHAR
STARTCHAR c
ENCODING 99
SWIDTH 203 0
DWIDTH 4 0
BBX 4 5 0 0
BITMAP
01
10
10
51
74
ENDCHAR
STARTCHAR d
ENCODING 100
SWIDTH 285 0
DWIDTH 6 0
BBX 13 15 0 0
BITMAP
00000680
00001000
00004000
00000000
00010000
00040000
00040000
00100000
00100000
00100000
05800000
10800000
11800000
52400000
65800000
ENDCHAR
STARTCHAR e
ENCODING 101
SWIDTH 206 0
DWIDTH 4 0
BBX 4 5 0 0
BITMAP
06
16
20
50
64
ENDCHAR
STARTCHAR f
ENCODING 102
SWIDTH 156 0
DWIDTH 3 0
BBX 17 20 -6 -5
BITMAP
0000001A40
0000004040
0000010000
0000010000
0000080000
0000140000
0000200000
0000200000
0000500000
0000800000
0007F80000
0001800000
0002400000
0002000000
0005000000
0008000000
0014000000
0010000000
4040000000
9500000000
ENDCHAR
STARTCHAR g
ENCODING 103
SWIDTH 210 0
DWIDTH 4 0
BBX 8 10 -3 -5
BITMAP
000D
0048
0158
00F0
0020
0020
1014
6008
3424
1BE0
ENDCHAR
STARTCHAR h
ENCODING 104
SWIDTH 292 0
DWIDTH 6 0
BBX 11 15 0 0
BITMAP
000068
000104
000400
001000
004000
004000
010000
010000
050000
080000
049000
148000
208000
214000
518000
ENDCHAR
STARTCHAR i
ENCODING 105
SWIDTH 149 0
DWIDTH 3 0
BBX 4 8 0 0
BITMAP
01
05
00
14
20
20
50
60
ENDCHAR
STARTCHAR j
ENCODING 106
SWIDTH 136 0
DWIDTH 3 0
BBX 10 13 -6 -5
BITMAP
000010
000040
000000
000140
000200
000200
000100
000400
000400
001000
001000
404000
950000
ENDCHAR
STARTCHAR k
ENCODING 107
SWIDTH 259 0
DWIDTH 5 0
BBX 11 15 0 0
BITMAP
000068
000504
001000
001000
004000
010000
010000
050000
080000
040000
158000
208000
290000
650000
524000
ENDCHAR
STARTCHAR l
ENCODING 108
SWIDTH 134 0
DWIDTH 3 0
BBX 10 15 0 0
BITMAP
0002D0
000410
001000
005000
004000
010000
010000
040000
080000
140000
200000
200000
200000
500000
500000
ENDCHAR
STARTCHAR m
ENCODING 109
SWIDTH 413 0
DWIDTH 8 0
BBX 8 5 0 0
BITMAP
1586
1892
2085
2148
5209
ENDCHAR
STARTCHAR n
ENCODING 110
SWIDTH 291 0
DWIDTH 6 0
BBX 6 5 0 0
BITMAP
1490
1480
2080
2140
5180
ENDCHAR
STARTCHAR o
ENCODING 111
SWIDTH 225 0
DWIDTH 5 0
BBX 5 5 0 0
BITMAP
0B00
1240
5100
5100
7800
ENDCHAR
STARTCHAR p
ENCODING 112
SWIDTH 261 0
DWIDTH 5 0
BBX 6 11 -1 -5
BITMAP
0200
0560
0020
0420
0490
1E40
2000
1000
5000
8000
9000
ENDCHAR
STARTCHAR q
ENCODING 113
SWIDTH 269 0
DWIDTH 5 0
BBX 6 10 0 -5
BITMAP
0590
1080
5140
5200
6600
0500
0800
0800
1800
1800
ENDCHAR
STARTCHAR r
ENCODING 114
SWIDTH 195 0
DWIDTH 4 0
BBX 5 5 0 0
BITMAP
2680
1800
2400
2000
5000
ENDCHAR
STARTCHAR s
ENCODING 115
SWIDTH 188 0
DWIDTH 4 0
BBX 4 5 0 0
BITMAP
15
24
08
48
94
ENDCHAR
STARTCHAR t
ENCODING 116
SWIDTH 171 0
DWIDTH 3 0
BBX 3 8 1 0
BITMAP
04
14
20
B8
90
80
80
90
ENDCHAR
STARTCHAR u
ENCODING 117
SWIDTH 299 0
DWIDTH 6 0
BBX 6 5 0 0
BITMAP
1850
2080
2180
5180
6490
ENDCHAR
STARTCHAR v
ENCODING 118
SWIDTH 271 0
DWIDTH 5 0
BBX 5 5 1 0
BITMAP
9140
5200
4600
A800
D000
ENDCHAR
STARTCHAR w
ENCODING 119
SWIDTH 369 0
DWIDTH 7 0
BBX 7 5 0 0
BITMAP
6048
1544
1604
2604
2190
ENDCHAR
STARTCHAR x
ENCODING 120
SWIDTH 263 0
DWIDTH 5 0
BBX 6 5 0 0
BITMAP
15D0
0A10
0800
1800
9240
ENDCHAR
STARTCHAR y
ENCODING 121
SWIDTH 280 0
DWIDTH 6 0
BBX 10 10 -4 -5
BITMAP
001410
002090
002180
005140
006600
000200
000500
400400
501000
254000
ENDCHAR
STARTCHAR z
ENCODING 122
SWIDTH 238 0
DWIDTH 5 0
BBX 5 5 0 0
BITMAP
1A40
0100
0400
1040
A900
ENDCHAR
STARTCHAR braceleft
ENCODING 123
SWIDTH 291 0
DWIDTH 6 0
BBX 7 15 1 -2
BITMAP
0014
0080
0200
0200
0200
0200
0400
2400
1800
0800
1400
2000
6000
6000
2400
ENDCHAR
STARTCHAR bar
ENCODING 124
SWIDTH 162 0
DWIDTH 3 0
BBX 1 18 1 -5
BITMAP
40
40
40
40
40
40
40
40
40
40
40
40
40
40
40
40
40
40
ENDCHAR
STARTCHAR braceright
ENCODING 125
SWIDTH 285 0
DWIDTH 6 0
BBX 6 15 0 -2
BITMAP
0040
0020
0020
0020
0050
0080
0080
0090
0040
0200
0200
0200
0500
0800
5400
ENDCHAR
STARTCHAR asciitilde
ENCODING 126
SWIDTH 383 0
DWIDTH 8 0
BBX 6 2 1 3
BITMAP
2D10
47D0
ENDCHAR
STARTCHAR space.dup1
ENCODING 160
SWIDTH 150 0
DWIDTH 3 0
BBX 1 1 0 0
BITMAP
00
ENDCHAR
STARTCHAR exclamdown
ENCODING 161
SWIDTH 189 0
DWIDTH 4 0
BBX 6 10 -2 -5
BITMAP
0050
0000
0040
0100
0100
0400
0800
1400
3000
6000
ENDCHAR
STARTCHAR cent
ENCODING 162
SWIDTH 194 0
DWIDTH 4 0
BBX 4 9 0 -2
BITMAP
01
03
18
58
A0
64
00
40
40
ENDCHAR
STARTCHAR sterling
ENCODING 163
SWIDTH 344 0
DWIDTH 7 0
BBX 7 6 0 0
BITMAP
0064
0104
0240
0500
1800
9A90
ENDCHAR
STARTCHAR currency
ENCODING 164
SWIDTH 344 0
DWIDTH 7 0
BBX 7 6 0 0
BITMAP
0404
0410
1010
1010
1580
4040
ENDCHAR
STARTCHAR yen
ENCODING 165
SWIDTH 309 0
DWIDTH 6 0
BBX 7 6 0 0
BITMAP
1414
0400
2B80
0800
6F00
1800
ENDCHAR
STARTCHAR brokenbar
ENCODING 166
SWIDTH 162 0
DWIDTH 3 0
BBX 1 18 1 -5
BITMAP
40
40
40
40
40
40
40
00
00
00
00
40
40
40
40
40
40
40
ENDCHAR
STARTCHAR section
ENCODING 167
SWIDTH 395 0
DWIDTH 8 0
BBX 11 16 -1 -5
BITMAP
000140
001964
005414
00A010
00A000
009400
009800
008800
008800
005900
006500
002500
402400
802800
906000
2A4000
ENDCHAR
STARTCHAR dieresis
ENCODING 168
SWIDTH 174 0
DWIDTH 3 0
BBX 3 1 0 6
BITMAP
58
ENDCHAR
STARTCHAR copyright
ENCODING 169
SWIDTH 331 0
DWIDTH 7 0
BBX 5 6 1 2
BITMAP
0100
1040
5540
5440
5140
1900
ENDCHAR
STARTCHAR ordfeminine
ENCODING 170
SWIDTH 226 0
DWIDTH 5 0
BBX 3 2 1 4
BITMAP
44
44
ENDCHAR
STARTCHAR guillemotleft
ENCODING 171
SWIDTH 289 0
DWIDTH 6 0
BBX 6 5 0 0
BITMAP
0160
1580
5A00
2740
09C0
ENDCHAR
STARTCHAR logicalnot
ENCODING 172
SWIDTH 265 0
DWIDTH 5 0
BBX 5 3 0 2
BITMAP
BF80
0180
0200
ENDCHAR
STARTCHAR registered
ENCODING 174
SWIDTH 331 0
DWIDTH 7 0
BBX 5 5 1 2
BITMAP
0040
0540
5440
9580
6A00
ENDCHAR
STARTCHAR degree
ENCODING 176
SWIDTH 104 0
DWIDTH 2 0
BBX 3 3 1 5
BITMAP
24
54
70
ENDCHAR
STARTCHAR plusminus
ENCODING 177
SWIDTH 301 0
DWIDTH 6 0
BBX 6 5 0 0
BITMAP
0100
0200
2FD0
0500
5940
ENDCHAR
STARTCHAR twosuperior
ENCODING 178
SWIDTH 215 0
DWIDTH 4 0
BBX 3 3 1 3
BITMAP
18
04
64
ENDCHAR
STARTCHAR threesuperior
ENCODING 179
SWIDTH 190 0
DWIDTH 4 0
BBX 2 3 1 3
BITMAP
10
10
50
ENDCHAR
STARTCHAR acute
ENCODING 180
SWIDTH 157 0
DWIDTH 3 0
BBX 2 2 1 6
BITMAP
60
40
ENDCHAR
STARTCHAR mu
ENCODING 181
SWIDTH 324 0
DWIDTH 6 0
BBX 7 8 -1 -3
BITMAP
0108
0218
0824
0C60
1A24
2000
2000
5000
ENDCHAR
STARTCHAR paragraph
ENCODING 182
SWIDTH 392 0
DWIDTH 8 0
BBX 10 11 -2 -5
BITMAP
000560
002D50
00BC80
00FC80
00F940
007600
001200
001500
405800
806000
664000
ENDCHAR
STARTCHAR periodcentered
ENCODING 183
SWIDTH 112 0
DWIDTH 2 0
BBX 2 2 0 2
BITMAP
20
50
ENDCHAR
STARTCHAR cedilla
ENCODING 184
SWIDTH 115 0
DWIDTH 2 0
BBX 1 2 1 -2
BITMAP
40
40
ENDCHAR
STARTCHAR onesuperior
ENCODING 185
SWIDTH 174 0
DWIDTH 3 0
BBX 2 4 1 3
BITMAP
90
20
40
80
ENDCHAR
STARTCHAR ordmasculine
ENCODING 186
SWIDTH 178 0
DWIDTH 4 0
BBX 2 2 1 4
BITMAP
50
40
ENDCHAR
STARTCHAR guillemotright
ENCODING 187
SWIDTH 276 0
DWIDTH 6 0
BBX 5 5 0 0
BITMAP
2200
1A40
0880
1100
4400
ENDCHAR
STARTCHAR onequarter
ENCODING 188
SWIDTH 435 0
DWIDTH 9 0
BBX 7 8 1 -1
BITMAP
0004
1810
1440
2118
5454
54F4
1010
4000
ENDCHAR
STARTCHAR onehalf
ENCODING 189
SWIDTH 434 0
DWIDTH 9 0
BBX 7 8 1 -1
BITMAP
0004
1810
1440
2118
5404
5410
1194
4000
ENDCHAR
STARTCHAR threequarters
ENCODING 190
SWIDTH 476 0
DWIDTH 10 0
BBX 8 8 1 -1
BITMAP
0005
1804
1410
0842
4514
0458
1404
1000
ENDCHAR
STARTCHAR questiondown
ENCODING 191
SWIDTH 285 0
DWIDTH 6 0
BBX 7 10 -1 -5
BITMAP
0014
0000
0090
0040
0100
1400
5000
8000
C040
7900
ENDCHAR
STARTCHAR Agrave
ENCODING 192
SWIDTH 996 0
DWIDTH 20 0
BBX 19 16 1 0
BITMAP
0000000040
0000000024
0000000000
000005AA90
000010006C
0000400064
0000400120
0000000450
0000001080
0000004080
00002FFF40
0000010140
4000040240
8000500240
9005000244
6EA40001E0
ENDCHAR
STARTCHAR Aacute
ENCODING 193
SWIDTH 996 0
DWIDTH 20 0
BBX 20 15 1 0
BITMAP
0000000019
0000000000
000005AA90
000010006C
0000400064
0000400120
0000000450
0000001080
0000004080
00002FFF40
0000010140
4000040240
8000500240
9005000244
6EA40001E0
ENDCHAR
STARTCHAR Acircumflex
ENCODING 194
SWIDTH 996 0
DWIDTH 20 0
BBX 20 16 1 0
BITMAP
0000000004
0000000016
0000000000
000005AA90
000010006C
0000400064
0000400120
0000000450
0000001080
0000004080
00002FFF40
0000010140
4000040240
8000500240
9005000244
6EA40001E0
ENDCHAR
STARTCHAR Atilde
ENCODING 195
SWIDTH 996 0
DWIDTH 20 0
BBX 21 15 1 0
BITMAP
000000003840
000000005900
000005AA9000
000010006C00
000040006400
000040012000
000000045000
000000108000
000000408000
00002FFF4000
000001014000
400004024000
800050024000
900500024400
6EA40001E000
ENDCHAR
STARTCHAR Adieresis
ENCODING 196
SWIDTH 996 0
DWIDTH 20 0
BBX 20 15 1 0
BITMAP
0000000016
0000000000
000005AA90
000010006C
0000400064
0000400120
0000000450
0000001080
0000004080
00002FFF40
0000010140
4000040240
8000500240
9005000244
6EA40001E0
ENDCHAR
STARTCHAR Aring
ENCODING 197
SWIDTH 996 0
DWIDTH 20 0
BBX 20 16 1 0
BITMAP
0000000008
0000000005
0000000008
000005AA90
000010006C
0000400064
0000400120
0000000450
0000001080
0000004080
00002FFF40
0000010140
4000040240
8000500240
9005000244
6EA40001E0
ENDCHAR
STARTCHAR AE
ENCODING 198
SWIDTH 1271 0
DWIDTH 25 0
BBX 26 13 1 0
BITMAP
000005AA905580
000010006D4050
00000000664000
00004001218000
0000000420E000
00000010550000
00000040900000
00001FFFC00000
00000100800000
40001400800000
80005000C00100
90050000900500
2EA40000295400
ENDCHAR
STARTCHAR Ccedilla
ENCODING 199
SWIDTH 557 0
DWIDTH 11 0
BBX 12 14 1 -1
BITMAP
001569
014005
040000
140000
200000
600000
500000
900000
A00000
700010
280050
0A4180
01A400
001000
ENDCHAR
STARTCHAR Egrave
ENCODING 200
SWIDTH 463 0
DWIDTH 9 0
BBX 11 16 0 0
BITMAP
000100
000180
000000
0015A0
005024
008010
008000
006000
02F800
0D0000
240000
600000
600000
600040
200140
095500
ENDCHAR
STARTCHAR Eacute
ENCODING 201
SWIDTH 463 0
DWIDTH 9 0
BBX 11 16 0 0
BITMAP
000050
000140
000000
0015A0
005024
008010
008000
006000
02F800
0D0000
240000
600000
600000
600040
200140
095500
ENDCHAR
STARTCHAR Ecircumflex
ENCODING 202
SWIDTH 463 0
DWIDTH 9 0
BBX 11 16 0 0
BITMAP
000100
000590
000000
0015A0
005024
008010
008000
006000
02F800
0D0000
240000
600000
600000
600040
200140
095500
ENDCHAR
STARTCHAR Edieresis
ENCODING 203
SWIDTH 463 0
DWIDTH 9 0
BBX 11 15 0 0
BITMAP
000250
000000
0015A0
005024
008010
008000
006000
02F800
0D0000
240000
600000
600000
600040
200140
095500
ENDCHAR
STARTCHAR Igrave
ENCODING 204
SWIDTH 514 0
DWIDTH 10 0
BBX 14 15 0 0
BITMAP
00000900
00000000
000002A0
00002940
00008200
00010500
00010800
00040800
00041400
00042000
00001000
50009000
80024000
A0190000
2F900000
ENDCHAR
STARTCHAR Iacute
ENCODING 205
SWIDTH 514 0
DWIDTH 10 0
BBX 14 16 0 0
BITMAP
00000040
00000640
00000000
000002A0
00002940
00008200
00010500
00010800
00040800
00041400
00042000
00001000
50009000
80024000
A0190000
2F900000
ENDCHAR
STARTCHAR Icircumflex
ENCODING 206
SWIDTH 514 0
DWIDTH 10 0
BBX 14 16 0 0
BITMAP
00000100
00000590
00000000
000002A0
00002940
00008200
00010500
00010800
00040800
00041400
00042000
00001000
50009000
80024000
A0190000
2F900000
ENDCHAR
STARTCHAR Idieresis
ENCODING 207
SWIDTH 514 0
DWIDTH 10 0
BBX 14 15 0 0
BITMAP
00000580
00000000
000002A0
00002940
00008200
00010500
00010800
00040800
00041400
00042000
00001000
50009000
80024000
A0190000
2F900000
ENDCHAR
STARTCHAR Eth
ENCODING 208
SWIDTH 800 0
DWIDTH 16 0
BBX 16 14 0 -1
BITMAP
0016A540
00400B40
010009D0
01002034
0000201C
00005009
00008006
001FFD03
00018002
00020002
00060001
15680000
65400050
00000500
ENDCHAR
STARTCHAR Ntilde
ENCODING 209
SWIDTH 796 0
DWIDTH 16 0
BBX 25 15 -3 0
BITMAP
00000000D10000
00000001640000
0006A800000B40
00100740002040
00000180008000
00000120014000
00000118010000
00000109040000
00000402040000
10000402440000
40001001940000
80001000900000
80004000A00000
64050000600000
1BA40000100000
ENDCHAR
STARTCHAR Ograve
ENCODING 210
SWIDTH 608 0
DWIDTH 12 0
BBX 12 15 1 0
BITMAP
000540
000000
001BE0
01902C
05000A
040003
200002
200002
500002
500002
900004
600004
340020
1D0180
06F900
ENDCHAR
STARTCHAR Oacute
ENCODING 211
SWIDTH 608 0
DWIDTH 12 0
BBX 12 16 1 0
BITMAP
000040
000140
000000
001BE0
01902C
05000A
040003
200002
200002
500002
500002
900004
600004
340020
1D0180
06F900
ENDCHAR
STARTCHAR Ocircumflex
ENCODING 212
SWIDTH 608 0
DWIDTH 12 0
BBX 12 16 1 0
BITMAP
000040
000590
000000
001BE0
01902C
05000A
040003
200002
200002
500002
500002
900004
600004
340020
1D0180
06F900
ENDCHAR
STARTCHAR Otilde
ENCODING 213
SWIDTH 608 0
DWIDTH 12 0
BBX 12 15 1 0
BITMAP
000750
000000
001BE0
01902C
05000A
040003
200002
200002
500002
500002
900004
600004
340020
1D0180
06F900
ENDCHAR
STARTCHAR Odieresis
ENCODING 214
SWIDTH 608 0
DWIDTH 12 0
BBX 12 15 1 0
BITMAP
000240
000000
001BE0
01902C
05000A
040003
200002
200002
500002
500002
900004
600004
340020
1D0180
06F900
ENDCHAR
STARTCHAR multiply
ENCODING 215
SWIDTH 301 0
DWIDTH 6 0
BBX 5 5 1 0
BITMAP
1140
1500
1400
4400
0100
ENDCHAR
STARTCHAR Oslash
ENCODING 216
SWIDTH 605 0
DWIDTH 12 0
BBX 12 13 1 0
BITMAP
001BD4
019054
050005
080002
200002
200002
500002
900006
900009
500018
200020
2E0180
16F900
ENDCHAR
STARTCHAR Ugrave
ENCODING 217
SWIDTH 717 0
DWIDTH 14 0
BBX 16 15 0 0
BITMAP
00000500
00000140
01AA8002
04014005
10010008
10040014
40100030
40100060
008000D0
00800180
00800580
01800540
01802140
01D18144
00BD01D0
ENDCHAR
STARTCHAR Uacute
ENCODING 218
SWIDTH 717 0
DWIDTH 14 0
BBX 16 15 0 0
BITMAP
00000050
00000140
01AA8002
04014005
10010008
10040014
40100030
40100060
008000D0
00800180
00800580
01800540
01802140
01D18144
00BD01D0
ENDCHAR
STARTCHAR Ucircumflex
ENCODING 219
SWIDTH 718 0
DWIDTH 14 0
BBX 16 15 0 0
BITMAP
00000180
00000550
01AA8002
04014005
10010008
10040014
40100030
40100060
008000D0
00800180
00800580
01800540
01802140
01D18144
00BD01D0
ENDCHAR
STARTCHAR Udieresis
ENCODING 220
SWIDTH 718 0
DWIDTH 14 0
BBX 16 15 0 0
BITMAP
00000240
00000000
01AA8002
04014005
10010008
10040014
40100030
40100060
008000D0
00800180
00800580
01800540
01802140
01D18144
00BD01D0
ENDCHAR
STARTCHAR Yacute
ENCODING 221
SWIDTH 662 0
DWIDTH 13 0
BBX 18 18 0 -3
BITMAP
0000002400
0000005000
0001900050
0004500080
0000900140
0000800200
0000800900
0001401C00
0002002400
0002006000
0502019000
1003094000
4002E10000
8000050000
8000040000
9000500000
3406400000
0BE4000000
ENDCHAR
STARTCHAR Thorn
ENCODING 222
SWIDTH 745 0
DWIDTH 15 0
BBX 15 14 1 0
BITMAP
00000050
00000140
00000200
00005B80
00010CB0
00041828
00002418
00003018
00006020
40008050
40008100
80010000
90040000
2A900000
ENDCHAR
STARTCHAR germandbls
ENCODING 223
SWIDTH 304 0
DWIDTH 6 0
BBX 18 20 -7 -5
BITMAP
0000000400
0000001050
0000004060
0000000090
0000000180
0000040A00
0000042800
000011D000
0000134000
0000150000
0000450000
0000810000
0000810000
0001414000
00011E0000
0001000000
0004000000
0004000000
0010000000
6940000000
ENDCHAR
STARTCHAR agrave
ENCODING 224
SWIDTH 294 0
DWIDTH 6 0
BBX 6 8 0 0
BITMAP
0180
0050
0000
0BD0
2480
2180
6640
7580
ENDCHAR
STARTCHAR aacute
ENCODING 225
SWIDTH 294 0
DWIDTH 6 0
BBX 6 8 0 0
BITMAP
0060
0040
0000
0BD0
2480
2180
6640
7580
ENDCHAR
STARTCHAR acircumflex
ENCODING 226
SWIDTH 294 0
DWIDTH 6 0
BBX 6 9 0 0
BITMAP
0040
0150
0000
0000
0BD0
2480
2180
6640
7580
ENDCHAR
STARTCHAR atilde
ENCODING 227
SWIDTH 294 0
DWIDTH 6 0
BBX 6 8 0 0
BITMAP
0350
05D0
0000
0BD0
2480
2180
6640
7580
ENDCHAR
STARTCHAR adieresis
ENCODING 228
SWIDTH 284 0
DWIDTH 6 0
BBX 6 7 0 0
BITMAP
0250
0000
0BD0
2480
2180
6640
7580
ENDCHAR
STARTCHAR aring
ENCODING 229
SWIDTH 294 0
DWIDTH 6 0
BBX 6 8 0 0
BITMAP
0180
0140
0000
0BD0
2480
2180
6640
7580
ENDCHAR
STARTCHAR ae
ENCODING 230
SWIDTH 363 0
DWIDTH 7 0
BBX 7 6 0 0
BITMAP
0010
0598
1084
1180
5580
6494
ENDCHAR
STARTCHAR ccedilla
ENCODING 231
SWIDTH 203 0
DWIDTH 4 0
BBX 4 7 0 -2
BITMAP
01
10
10
51
74
10
10
ENDCHAR
STARTCHAR egrave
ENCODING 232
SWIDTH 206 0
DWIDTH 4 0
BBX 5 8 0 0
BITMAP
0600
0140
0000
0600
1600
2000
5000
6400
ENDCHAR
STARTCHAR eacute
ENCODING 233
SWIDTH 206 0
DWIDTH 4 0
BBX 5 8 0 0
BITMAP
0180
0100
0000
0600
1600
2000
5000
6400
ENDCHAR
STARTCHAR ecircumflex
ENCODING 234
SWIDTH 206 0
DWIDTH 4 0
BBX 5 9 0 0
BITMAP
0100
0540
0000
0000
0600
1600
2000
5000
6400
ENDCHAR
STARTCHAR edieresis
ENCODING 235
SWIDTH 206 0
DWIDTH 4 0
BBX 5 7 0 0
BITMAP
0880
0000
0600
1600
2000
5000
6400
ENDCHAR
STARTCHAR igrave
ENCODING 236
SWIDTH 149 0
DWIDTH 3 0
BBX 4 8 0 0
BITMAP
18
05
00
14
20
20
50
60
ENDCHAR
STARTCHAR iacute
ENCODING 237
SWIDTH 149 0
DWIDTH 3 0
BBX 5 8 0 0
BITMAP
0240
0500
0000
1400
2000
2000
5000
6000
ENDCHAR
STARTCHAR icircumflex
ENCODING 238
SWIDTH 149 0
DWIDTH 3 0
BBX 4 9 0 0
BITMAP
04
11
00
00
14
20
20
50
60
ENDCHAR
STARTCHAR idieresis
ENCODING 239
SWIDTH 149 0
DWIDTH 3 0
BBX 5 7 0 0
BITMAP
0940
0000
1400
2000
2000
5000
6000
ENDCHAR
STARTCHAR eth
ENCODING 240
SWIDTH 234 0
DWIDTH 5 0
BBX 5 13 0 0
BITMAP
1000
2000
2000
0900
1900
0200
0200
0140
0140
1040
1100
5100
3800
ENDCHAR
STARTCHAR ntilde
ENCODING 241
SWIDTH 291 0
DWIDTH 6 0
BBX 6 8 0 0
BITMAP
0350
05D0
0000
1490
1480
2080
2140
5180
ENDCHAR
STARTCHAR ograve
ENCODING 242
SWIDTH 225 0
DWIDTH 5 0
BBX 5 8 0 0
BITMAP
0300
0040
0000
0B00
1240
5100
5100
7800
ENDCHAR
STARTCHAR oacute
ENCODING 243
SWIDTH 225 0
DWIDTH 5 0
BBX 5 8 0 0
BITMAP
0080
0100
0000
0B00
1240
5100
5100
7800
ENDCHAR
STARTCHAR ocircumflex
ENCODING 244
SWIDTH 225 0
DWIDTH 5 0
BBX 5 9 0 0
BITMAP
0100
0440
0000
0000
0B00
1240
5100
5100
7800
ENDCHAR
STARTCHAR otilde
ENCODING 245
SWIDTH 225 0
DWIDTH 5 0
BBX 6 8 0 0
BITMAP
0A10
0680
0000
0B00
1240
5100
5100
7800
ENDCHAR
STARTCHAR odieresis
ENCODING 246
SWIDTH 225 0
DWIDTH 5 0
BBX 5 7 0 0
BITMAP
0880
0000
0B00
1240
5100
5100
7800
ENDCHAR
STARTCHAR divide
ENCODING 247
SWIDTH 301 0
DWIDTH 6 0
BBX 4 4 1 1
BITMAP
04
00
55
10
ENDCHAR
STARTCHAR oslash
ENCODING 248
SWIDTH 225 0
DWIDTH 5 0
BBX 5 6 0 0
BITMAP
0040
0640
1240
5500
6100
6400
ENDCHAR
STARTCHAR ugrave
ENCODING 249
SWIDTH 299 0
DWIDTH 6 0
BBX 6 8 0 0
BITMAP
0180
0050
0000
1850
2080
2180
5180
6490
ENDCHAR
STARTCHAR uacute
ENCODING 250
SWIDTH 299 0
DWIDTH 6 0
BBX 6 8 0 0
BITMAP
0060
0040
0000
1850
2080
2180
5180
6490
ENDCHAR
STARTCHAR ucircumflex
ENCODING 251
SWIDTH 299 0
DWIDTH 6 0
BBX 6 9 0 0
BITMAP
0040
0150
0000
0000
1850
2080
2180
5180
6490
ENDCHAR
STARTCHAR udieresis
ENCODING 252
SWIDTH 299 0
DWIDTH 6 0
BBX 6 7 0 0
BITMAP
0260
0000
1850
2080
2180
5180
6490
ENDCHAR
STARTCHAR yacute
ENCODING 253
SWIDTH 280 0
DWIDTH 6 0
BBX 10 13 -4 -5
BITMAP
000020
000040
000000
001410
002090
002180
005140
006600
000200
000500
400400
501000
254000
ENDCHAR
STARTCHAR thorn
ENCODING 254
SWIDTH 261 0
DWIDTH 5 0
BBX 6 15 -1 -5
BITMAP
0050
0050
0080
0040
0200
0160
0420
0420
0490
2E40
2000
1000
5000
8000
9000
ENDCHAR
STARTCHAR ydieresis
ENCODING 255
SWIDTH 280 0
DWIDTH 6 0
BBX 10 12 -4 -5
BITMAP
000250
000000
001410
002090
002180
005140
006600
000200
000500
400400
501000
254000
ENDCHAR
STARTCHAR dotlessi
ENCODING 305
SWIDTH 149 0
DWIDTH 3 0
BBX 3 5 0 0
BITMAP
14
20
20
50
60
ENDCHAR
STARTCHAR Lslash
ENCODING 321
SWIDTH 657 0
DWIDTH 13 0
BBX 15 13 0 0
BITMAP
000002F0
00000914
00001004
00005000
00008000
00009400
0016D000
00024000
00030000
00050000
01480000
50790140
3E86FD00
ENDCHAR
STARTCHAR lslash
ENCODING 322
SWIDTH 134 0
DWIDTH 3 0
BBX 10 15 0 0
BITMAP
0002D0
000410
001000
004000
004000
010000
064000
040000
080000
140000
200000
200000
200000
500000
500000
ENDCHAR
STARTCHAR OE
ENCODING 338
SWIDTH 827 0
DWIDTH 17 0
BBX 17 13 1 0
BITMAP
001BE15A00
01906D0140
0500080040
0400090000
2000024000
20001FC000
5000A40000
9002800000
9003000000
6003000000
3403000400
2D02400800
07F9655000
ENDCHAR
STARTCHAR oe
ENCODING 339
SWIDTH 345 0
DWIDTH 7 0
BBX 7 5 0 0
BITMAP
0618
1154
5140
5240
6590
ENDCHAR
STARTCHAR Scaron
ENCODING 352
SWIDTH 480 0
DWIDTH 10 0
BBX 10 16 1 0
BITMAP
000400
000240
000000
001A80
001050
005010
005000
002000
001800
000900
000200
000200
800200
800200
900500
2A5000
ENDCHAR
STARTCHAR scaron
ENCODING 353
SWIDTH 188 0
DWIDTH 4 0
BBX 4 8 0 0
BITMAP
08
00
00
15
24
08
48
94
ENDCHAR
STARTCHAR Ydieresis
ENCODING 376
SWIDTH 662 0
DWIDTH 13 0
BBX 18 18 0 -3
BITMAP
0000016000
0000000000
0001900050
0004500080
0000900140
0000800200
0000800900
0001401C00
0002002400
0002006000
0502019000
1003094000
4002E10000
8000050000
8000040000
9000500000
3406400000
0BE4000000
ENDCHAR
STARTCHAR Zcaron
ENCODING 381
SWIDTH 625 0
DWIDTH 13 0
BBX 13 16 1 0
BITMAP
00004000
00002400
00000000
000BE440
00201B40
00400000
00400000
00000000
00000000
00000000
00000000
00000000
00000000
00000400
2E501400
41BF8000
ENDCHAR
STARTCHAR zcaron
ENCODING 382
SWIDTH 248 0
DWIDTH 5 0
BBX 5 8 0 0
BITMAP
0500
0000
0000
1A40
0100
0400
1000
A900
ENDCHAR
STARTCHAR florin
ENCODING 402
SWIDTH 214 0
DWIDTH 4 0
BBX 7 8 -2 -2
BITMAP
002C
0080
0140
07E0
0200
0200
0400
5400
ENDCHAR
STARTCHAR circumflex
ENCODING 710
SWIDTH 196 0
DWIDTH 4 0
BBX 3 2 1 7
BITMAP
50
54
ENDCHAR
STARTCHAR caron
ENCODING 711
SWIDTH 196 0
DWIDTH 4 0
BBX 2 1 0 7
BITMAP
60
ENDCHAR
STARTCHAR breve
ENCODING 728
SWIDTH 198 0
DWIDTH 4 0
BBX 3 2 0 6
BITMAP
40
18
ENDCHAR
STARTCHAR dotaccent
ENCODING 729
SWIDTH 89 0
DWIDTH 2 0
BBX 2 2 0 6
BITMAP
50
80
ENDCHAR
STARTCHAR ring
ENCODING 730
SWIDTH 117 0
DWIDTH 2 0
BBX 2 2 0 6
BITMAP
60
50
ENDCHAR
STARTCHAR ogonek
ENCODING 731
SWIDTH 124 0
DWIDTH 2 0
BBX 2 3 0 -3
BITMAP
10
40
10
ENDCHAR
STARTCHAR tilde
ENCODING 732
SWIDTH 222 0
DWIDTH 4 0
BBX 4 2 0 6
BITMAP
25
5D
ENDCHAR
STARTCHAR hungarumlaut
ENCODING 733
SWIDTH 253 0
DWIDTH 5 0
BBX 5 2 0 6
BITMAP
2A40
5500
ENDCHAR
STARTCHAR mu.dup2
ENCODING 956
SWIDTH 324 0
DWIDTH 6 0
BBX 7 8 -1 -3
BITMAP
0108
0218
0824
0C60
1A24
2000
2000
5000
ENDCHAR
STARTCHAR endash
ENCODING 8211
SWIDTH 500 0
DWIDTH 10 0
BBX 10 1 0 3
BITMAP
BFFFD0
ENDCHAR
STARTCHAR emdash
ENCODING 8212
SWIDTH 1000 0
DWIDTH 20 0
BBX 20 1 0 3
BITMAP
BFFFFFFFFD
ENDCHAR
STARTCHAR quoteleft
ENCODING 8216
SWIDTH 87 0
DWIDTH 2 0
BBX 2 3 1 5
BITMAP
50
80
80
ENDCHAR
STARTCHAR quoteright
ENCODING 8217
SWIDTH 87 0
DWIDTH 2 0
BBX 2 3 1 5
BITMAP
20
10
40
ENDCHAR
STARTCHAR quotesinglbase
ENCODING 8218
SWIDTH 112 0
DWIDTH 2 0
BBX 1 1 1 0
BITMAP
40
ENDCHAR
STARTCHAR quotedblleft
ENCODING 8220
SWIDTH 167 0
DWIDTH 3 0
BBX 3 3 1 5
BITMAP
14
84
94
ENDCHAR
STARTCHAR quotedblright
ENCODING 8221
SWIDTH 167 0
DWIDTH 3 0
BBX 4 3 1 5
BITMAP
25
14
44
ENDCHAR
STARTCHAR quotedblbase
ENCODING 8222
SWIDTH 192 0
DWIDTH 4 0
BBX 4 2 0 -1
BITMAP
25
54
ENDCHAR
STARTCHAR dagger
ENCODING 8224
SWIDTH 185 0
DWIDTH 4 0
BBX 5 13 0 -2
BITMAP
0100
0200
0500
0400
7E80
0400
1400
1000
1000
1000
1000
4000
4000
ENDCHAR
STARTCHAR daggerdbl
ENCODING 8225
SWIDTH 185 0
DWIDTH 4 0
BBX 6 12 -1 -1
BITMAP
0040
0080
0140
0100
0BE0
0100
0400
0400
7F40
0400
1000
1000
ENDCHAR
STARTCHAR bullet
ENCODING 8226
SWIDTH 207 0
DWIDTH 4 0
BBX 3 2 1 2
BITMAP
B4
B0
ENDCHAR
STARTCHAR ellipsis
ENCODING 8230
SWIDTH 376 0
DWIDTH 8 0
BBX 7 1 0 0
BITMAP
5248
ENDCHAR
STARTCHAR perthousand
ENCODING 8240
SWIDTH 571 0
DWIDTH 11 0
BBX 11 8 0 -1
BITMAP
000400
051000
425000
855818
654548
048444
14A490
100000
ENDCHAR
STARTCHAR guilsinglleft
ENCODING 8249
SWIDTH 189 0
DWIDTH 4 0
BBX 4 5 0 0
BITMAP
01
14
50
20
08
ENDCHAR
STARTCHAR guilsinglright
ENCODING 8250
SWIDTH 176 0
DWIDTH 4 0
BBX 3 5 0 0
BITMAP
20
18
08
10
40
ENDCHAR
STARTCHAR fraction
ENCODING 8260
SWIDTH 220 0
DWIDTH 4 0
BBX 6 8 0 -1
BITMAP
0010
0050
0040
0100
0400
1000
4000
4000
ENDCHAR
STARTCHAR Euro
ENCODING 8364
SWIDTH 360 0
DWIDTH 7 0
BBX 6 7 0 0
BITMAP
06D0
0400
7F40
2000
7F00
2000
1040
ENDCHAR
STARTCHAR trademark
ENCODING 8482
SWIDTH 389 0
DWIDTH 8 0
BBX 6 3 1 3
BITMAP
5450
1190
4450
ENDCHAR
STARTCHAR minus
ENCODING 8722
SWIDTH 301 0
DWIDTH 6 0
BBX 5 1 1 2
BITMAP
BF40
ENDCHAR
STARTCHAR fi
ENCODING 64257
SWIDTH 297 0
DWIDTH 6 0
BBX 17 20 -6 -5
BITMAP
0000001A40
0000004040
0000010000
0000010000
0000040000
0000040000
0000200000
0000204000
0000510000
0000800000
0003FE0000
0001840000
0002480000
0002140000
0005180000
0008000000
0014000000
0010000000
4040000000
9500000000
ENDCHAR
STARTCHAR fl
ENCODING 64258
SWIDTH 290 0
DWIDTH 6 0
BBX 19 20 -6 -5
BITMAP
0000001568
0000005600
0000010400
0000050000
0000081000
0000144000
0000204000
0000210000
0000510000
0000810000
0002FC0000
0001840000
0002080000
0002080000
0005190000
0008000000
0014000000
0010000000
4040000000
9500000000
ENDCHAR
STARTCHAR .notdef
ENCODING -1
SWIDTH 150 0
DWIDTH 3 0
BBX 1 1 0 0
BITMAP
00
ENDCHAR
STARTCHAR .null
ENCODING -1
SWIDTH 0 0
DWIDTH 0 0
BBX 1 1 0 0
BITMAP
00
ENDCHAR
STARTCHAR nonmarkingreturn
ENCODING -1
SWIDTH 150 0
DWIDTH 3 0
BBX 1 1 0 0
BITMAP
00
ENDCHAR
ENDFONT
